<?xml version="1.0" encoding="utf-8"?>
<!-- Generator: Adobe Illustrator 13.0.0, SVG Export Plug-In . SVG Version: 6.00 Build 14948)  -->
<!DOCTYPE svg PUBLIC "-//W3C//DTD SVG 1.0//EN" "http://www.w3.org/TR/2001/REC-SVG-20010904/DTD/svg10.dtd">
<svg version="1.0"
	 id="svg2" xmlns:dc="http://purl.org/dc/elements/1.1/" xmlns:cc="http://creativecommons.org/ns#" xmlns:rdf="http://www.w3.org/1999/02/22-rdf-syntax-ns#" xmlns:svg="http://www.w3.org/2000/svg" xmlns:sodipodi="http://sodipodi.sourceforge.net/DTD/sodipodi-0.dtd" xmlns:inkscape="http://www.inkscape.org/namespaces/inkscape" sodipodi:version="0.32" sodipodi:docname="Blank_template.svg" inkscape:version="0.46" inkscape:output_extension="org.inkscape.output.svg.inkscape"
	 xmlns="http://www.w3.org/2000/svg" xmlns:xlink="http://www.w3.org/1999/xlink" x="0px" y="0px" width="48.787px"
	 height="48.787px" viewBox="-0.591 -0.591 48.787 48.787" enable-background="new -0.591 -0.591 48.787 48.787"
	 xml:space="preserve">
<defs>
	
	
		<inkscape:perspective  id="perspective9" inkscape:vp_z="744.09448 : 526.18109 : 1" inkscape:vp_y="0 : 1000 : 0" inkscape:vp_x="0 : 526.18109 : 1" sodipodi:type="inkscape:persp3d" inkscape:persp3d-origin="372.04724 : 350.78739 : 1">
		</inkscape:perspective>
	
		<inkscape:perspective  id="perspective2546" inkscape:vp_z="40 : 15 : 1" inkscape:vp_y="0 : 1000 : 0" inkscape:vp_x="0 : 15 : 1" sodipodi:type="inkscape:persp3d" inkscape:persp3d-origin="20 : 10 : 1">
		</inkscape:perspective>
	
		<inkscape:perspective  id="perspective5779" inkscape:vp_z="42.279999 : 21.139999 : 1" inkscape:vp_y="0 : 1000 : 0" inkscape:vp_x="0 : 21.139999 : 1" sodipodi:type="inkscape:persp3d" inkscape:persp3d-origin="21.139999 : 14.093333 : 1">
		</inkscape:perspective>
</defs>
<sodipodi:namedview  id="base" inkscape:cy="23.999999" inkscape:cx="14.26146" inkscape:zoom="12.270833" showgrid="false" pagecolor="#ffffff" bordercolor="#666666" borderopacity="1.0" objecttolerance="10.0" gridtolerance="10.0" guidetolerance="10.0" inkscape:current-layer="layer2" inkscape:window-y="116" inkscape:window-x="0" inkscape:pageopacity="0.0" inkscape:pageshadow="2" inkscape:window-width="1280" inkscape:window-height="796">
	</sodipodi:namedview>
<g id="layer2" inkscape:groupmode="layer">
	<g id="g2682" transform="matrix(1.2680625,0,0,1.2680625,-7.4106e-2,11.579644)" inkscape:label="wiki-stub">
		<g id="g3177">
			
				<linearGradient id="path2220_2_" gradientUnits="userSpaceOnUse" x1="-84.8652" y1="-54.3279" x2="-107.8753" y2="-78.3415" gradientTransform="matrix(1.2221 0 0 -1.0057 138.2231 -48.931)">
				<stop  offset="0" style="stop-color:#3F3F3F"/>
				<stop  offset="1" style="stop-color:#FFFFFF"/>
			</linearGradient>
			
				<path id="path2220" sodipodi:nodetypes="ccccccccccccccccccccc" fill="url(#path2220_2_)" stroke="#323232" stroke-width="0.4177" d="
				M25.07,26.809c2.009-0.709,2.625-2.926,3.532-4.752c1.061-1.114,1.98,1.455,4.051,1.218c1.426-0.162,3.695-2.571,2.811-4.139
				c-1.942-1.699-3.325,0.496-4.531-0.918c-0.184-1.523,4.01-2.621,3.027-3.732c-1.794-1.333-5.135-0.986-8.344-2.222
				c-1.432-1.618,3.237-0.945,2.209-2.524c-0.42-0.635-3.214-2.18-6.38-1.515c-2.034,0.675,0.356,2.739-2.822,2.524
				c-2.173-0.27-5.866-1.687-7.976-1.01c-1.634,1.118-2.443,2.68-2.577,3.231c-0.332,1.707,3.608,0.562,4.181,1.007
				c1.697,1.399-1.927,3.134-2.951,2.545c-0.41-0.826-1.403-1.255-2.767-0.965c-1.385,0.085-3.709,4.209-3.016,5.294
				c1.162,1.353,7.452,3.066,9.008,2.872c2.037,0.052,0.918-0.839,1.064-1.984c0.314-1.456,7.576,0.611,6.029,1.597
				c-2.07,0.382-2.643,1.092-1.883,1.819C19.112,26.323,23.906,27.361,25.07,26.809z"/>
			<g id="use2398" transform="translate(7.178268e-2,-0.3589134)">
				
					<linearGradient id="path2220_3_" gradientUnits="userSpaceOnUse" x1="-84.8852" y1="-54.3768" x2="-107.8954" y2="-78.3904" gradientTransform="matrix(1.2221 0 0 -1.0057 138.2947 -49.2898)">
					<stop  offset="0" style="stop-color:#3F3F3F"/>
					<stop  offset="1" style="stop-color:#FFFFFF"/>
				</linearGradient>
				
					<path id="path2220_1_" sodipodi:nodetypes="ccccccccccccccccccccc" fill="url(#path2220_3_)" stroke="#323232" stroke-width="0.4177" d="
					M25.117,26.499c2.009-0.709,2.625-2.926,3.531-4.752c1.063-1.114,1.981,1.455,4.052,1.218c1.426-0.162,3.695-2.571,2.811-4.139
					c-1.942-1.699-3.325,0.496-4.531-0.918c-0.184-1.523,4.011-2.621,3.027-3.732c-1.794-1.333-5.134-0.986-8.344-2.222
					c-1.432-1.618,3.236-0.945,2.209-2.524c-0.42-0.635-3.213-2.18-6.38-1.515c-2.034,0.675,0.356,2.739-2.822,2.524
					c-2.173-0.27-5.867-1.687-7.976-1.01c-1.634,1.118-2.443,2.68-2.577,3.231c-0.332,1.707,3.608,0.562,4.181,1.007
					c1.697,1.399-1.927,3.134-2.951,2.545c-0.41-0.826-1.403-1.255-2.767-0.965c-1.384,0.085-3.709,4.209-3.016,5.294
					c1.162,1.353,7.452,3.066,9.009,2.872c2.037,0.052,0.918-0.839,1.064-1.984c0.313-1.456,7.576,0.61,6.03,1.597
					c-2.071,0.382-2.643,1.092-1.884,1.819C19.159,26.014,23.954,27.052,25.117,26.499z"/>
			</g>
		</g>
	</g>
</g>
<ellipse transform="matrix(0.9798 -0.2002 0.2002 0.9798 -2.4661 4.776)" fill="#007F74" cx="22.382" cy="14.582" rx="19.885" ry="8.134"/>
<radialGradient id="SVGID_1_" cx="22.3125" cy="14.25" r="15.0202" gradientUnits="userSpaceOnUse">
	<stop  offset="0" style="stop-color:#FFFFFF"/>
	<stop  offset="0.0849" style="stop-color:#F6FCFD"/>
	<stop  offset="0.2241" style="stop-color:#DDF4F7"/>
	<stop  offset="0.4005" style="stop-color:#B5E7EC"/>
	<stop  offset="0.6069" style="stop-color:#7DD6DE"/>
	<stop  offset="0.8359" style="stop-color:#37BFCD"/>
	<stop  offset="1" style="stop-color:#00AEBF"/>
</radialGradient>
<path fill="url(#SVGID_1_)" d="M41.54,10.321c0.898,4.396-6.981,9.719-17.601,11.89C13.32,24.38,3.983,22.575,3.085,18.179
	c-0.898-4.396,6.982-9.72,17.601-11.889C31.306,4.12,40.642,5.925,41.54,10.321z"/>
<ellipse transform="matrix(0.9798 -0.2002 0.2002 0.9798 -2.3374 4.6352)" fill="#007F74" cx="21.75" cy="13.875" rx="6.602" ry="2.734"/>
<ellipse transform="matrix(0.9798 -0.2002 0.2002 0.9798 -5.9973 5.9404)" fill="#7FFFF8" cx="26.375" cy="32.625" rx="4.746" ry="2.745"/>
<linearGradient id="SVGID_2_" gradientUnits="userSpaceOnUse" x1="27.0254" y1="35.1797" x2="23.7629" y2="22.6662">
	<stop  offset="0" style="stop-color:#7FFFF8"/>
	<stop  offset="1" style="stop-color:#FBFFDF"/>
</linearGradient>
<path opacity="0.65" fill="url(#SVGID_2_)" d="M21.803,22.984l-0.072,10.734c0,0,1.482,2.747,5.494,1.627
	c4.515-1.261,3.76-3.832,3.76-3.832l-5.024-9.506"/>
<radialGradient id="SVGID_3_" cx="19.667" cy="11.1665" r="4.0344" gradientUnits="userSpaceOnUse">
	<stop  offset="0" style="stop-color:#FFFFFF"/>
	<stop  offset="0.0914" style="stop-color:#E4F6F8"/>
	<stop  offset="0.4303" style="stop-color:#83D8E0"/>
	<stop  offset="0.7047" style="stop-color:#3DC1CE"/>
	<stop  offset="0.9008" style="stop-color:#11B3C3"/>
	<stop  offset="1" style="stop-color:#00AEBF"/>
</radialGradient>
<path fill="url(#SVGID_3_)" d="M15.861,14.858c0,0,1.497,2.295,6.136,1.147s5.737-3.043,5.687-3.193s-1.197-5.687-6.834-4.739
	C14.047,9.217,15.861,14.858,15.861,14.858z"/>
<radialGradient id="SVGID_4_" cx="16.7495" cy="14.1162" r="0.6325" gradientUnits="userSpaceOnUse">
	<stop  offset="0" style="stop-color:#FFFFFF"/>
	<stop  offset="0.1205" style="stop-color:#FAFFFE"/>
	<stop  offset="0.2535" style="stop-color:#EDFFFB"/>
	<stop  offset="0.3926" style="stop-color:#D7FFF7"/>
	<stop  offset="0.536" style="stop-color:#B8FFF1"/>
	<stop  offset="0.6826" style="stop-color:#90FFE9"/>
	<stop  offset="0.8318" style="stop-color:#60FFDF"/>
	<stop  offset="0.9806" style="stop-color:#27FFD4"/>
	<stop  offset="1" style="stop-color:#1FFFD2"/>
</radialGradient>
<circle fill="url(#SVGID_4_)" cx="17.086" cy="14.41" r="1.03"/>
<radialGradient id="SVGID_5_" cx="21.8101" cy="13.9888" r="0.6299" gradientUnits="userSpaceOnUse">
	<stop  offset="0" style="stop-color:#FFFFFF"/>
	<stop  offset="0.1205" style="stop-color:#FAFFFE"/>
	<stop  offset="0.2535" style="stop-color:#EDFFFB"/>
	<stop  offset="0.3926" style="stop-color:#D7FFF7"/>
	<stop  offset="0.536" style="stop-color:#B8FFF1"/>
	<stop  offset="0.6826" style="stop-color:#90FFE9"/>
	<stop  offset="0.8318" style="stop-color:#60FFDF"/>
	<stop  offset="0.9806" style="stop-color:#27FFD4"/>
	<stop  offset="1" style="stop-color:#1FFFD2"/>
</radialGradient>
<circle fill="url(#SVGID_5_)" cx="21.843" cy="14.236" r="1.03"/>
<radialGradient id="SVGID_6_" cx="26.4375" cy="12.0117" r="0.7875" gradientUnits="userSpaceOnUse">
	<stop  offset="0" style="stop-color:#FFFFFF"/>
	<stop  offset="0.1205" style="stop-color:#FAFFFE"/>
	<stop  offset="0.2535" style="stop-color:#EDFFFB"/>
	<stop  offset="0.3926" style="stop-color:#D7FFF7"/>
	<stop  offset="0.536" style="stop-color:#B8FFF1"/>
	<stop  offset="0.6826" style="stop-color:#90FFE9"/>
	<stop  offset="0.8318" style="stop-color:#60FFDF"/>
	<stop  offset="0.9806" style="stop-color:#27FFD4"/>
	<stop  offset="1" style="stop-color:#1FFFD2"/>
</radialGradient>
<circle fill="url(#SVGID_6_)" cx="26.209" cy="12.434" r="1.029"/>
<path fill="none" stroke="#00CCCC" stroke-width="0.5" d="M12.274,4.8c0,0,2.302,0.738,3.801,2.498s1.499,2.042,1.499,2.042"/>
<path fill="none" stroke="#00CCCC" stroke-width="0.5" d="M17.4,2.801c0,0,0.891,0.457,1.673,1.847s1.042,3.563,1.042,3.563"/>
<path fill="none" stroke="#00CCCC" stroke-width="0.5" d="M22.723,2.323c0,0-0.826,1.26-1,2.455s0.174,3.193,0.174,3.193"/>
<radialGradient id="SVGID_7_" cx="11.9063" cy="4.4966" r="0.53" gradientUnits="userSpaceOnUse">
	<stop  offset="0" style="stop-color:#FFFFFF"/>
	<stop  offset="0.1123" style="stop-color:#FAFEFE"/>
	<stop  offset="0.2363" style="stop-color:#EDFBFB"/>
	<stop  offset="0.366" style="stop-color:#D7F7F7"/>
	<stop  offset="0.4997" style="stop-color:#B8F1F1"/>
	<stop  offset="0.6363" style="stop-color:#90E9E9"/>
	<stop  offset="0.7755" style="stop-color:#5FDFDF"/>
	<stop  offset="0.9142" style="stop-color:#27D4D4"/>
	<stop  offset="1" style="stop-color:#00CCCC"/>
</radialGradient>
<circle fill="url(#SVGID_7_)" stroke="#BFFFFD" stroke-width="0.25" cx="12.055" cy="4.641" r="0.541"/>
<radialGradient id="SVGID_8_" cx="16.9248" cy="2.481" r="0.5298" gradientUnits="userSpaceOnUse">
	<stop  offset="0" style="stop-color:#FFFFFF"/>
	<stop  offset="0.1123" style="stop-color:#FAFEFE"/>
	<stop  offset="0.2363" style="stop-color:#EDFBFB"/>
	<stop  offset="0.366" style="stop-color:#D7F7F7"/>
	<stop  offset="0.4997" style="stop-color:#B8F1F1"/>
	<stop  offset="0.6363" style="stop-color:#90E9E9"/>
	<stop  offset="0.7755" style="stop-color:#5FDFDF"/>
	<stop  offset="0.9142" style="stop-color:#27D4D4"/>
	<stop  offset="1" style="stop-color:#00CCCC"/>
</radialGradient>
<circle fill="url(#SVGID_8_)" stroke="#BFFFFD" stroke-width="0.25" cx="17.073" cy="2.625" r="0.541"/>
<radialGradient id="SVGID_9_" cx="22.7725" cy="1.8022" r="0.5298" gradientUnits="userSpaceOnUse">
	<stop  offset="0" style="stop-color:#FFFFFF"/>
	<stop  offset="0.1123" style="stop-color:#FAFEFE"/>
	<stop  offset="0.2363" style="stop-color:#EDFBFB"/>
	<stop  offset="0.366" style="stop-color:#D7F7F7"/>
	<stop  offset="0.4997" style="stop-color:#B8F1F1"/>
	<stop  offset="0.6363" style="stop-color:#90E9E9"/>
	<stop  offset="0.7755" style="stop-color:#5FDFDF"/>
	<stop  offset="0.9142" style="stop-color:#27D4D4"/>
	<stop  offset="1" style="stop-color:#00CCCC"/>
</radialGradient>
<circle fill="url(#SVGID_9_)" stroke="#BFFFFD" stroke-width="0.25" cx="22.921" cy="1.947" r="0.541"/>
</svg>
